<svg xmlns="http://www.w3.org/2000/svg" width="321.991" height="263.673" viewBox="0 0 321.991 263.673">
  <g id="Group_731" data-name="Group 731" transform="translate(-64.964 11.741)">
    <path id="Path_1920" data-name="Path 1920" d="M3224.311,1298.127l-12.062-34.708-1.224-7.62-.016.01a7.311,7.311,0,0,0-14.611.462v2.475h4.9v-2.475a2.418,2.418,0,1,1,4.835,0v2.622l-1.466,4.225h0l-13.093,35.009h7.479l9.248-26.561,8.535,26.561Z" transform="translate(3311.201 1401.88) rotate(180)" fill="#f0f4fa"/>
    <path id="Path_1922" data-name="Path 1922" d="M3500.9,1122.442l-12.062-34.708-1.225-7.62-.016.01a7.311,7.311,0,0,0-14.611.462v2.476h4.9v-2.476a2.418,2.418,0,1,1,4.834,0v2.622l-1.466,4.224h0l-13.093,35.009h7.479l9.249-26.562,8.536,26.562Z" transform="translate(-3113.947 -1040.831)" fill="#f0f4fa"/>
    <path id="Path_1923" data-name="Path 1923" d="M3611.988,1127.2l18.1,52.085,1.837,11.435.024-.015a10.971,10.971,0,0,0,21.926-.694V1186.3h-7.347v3.715a3.629,3.629,0,1,1-7.256,0v-3.935l2.2-6.34h0l19.648-52.537H3649.9l-13.879,39.86-12.809-39.86Z" transform="translate(3976.863 1315.79) rotate(180)" fill="#f0f4fa"/>
    <path id="Path_1924" data-name="Path 1924" d="M3344.8,1141.353l8.261,23.772.839,5.219.011-.007a5.007,5.007,0,0,0,10.007-.317v-1.7h-3.354v1.7a1.656,1.656,0,1,1-3.311,0v-1.8l1-2.894h0l8.968-23.979h-5.122l-6.334,18.192-5.846-18.192Z" transform="translate(-3057.004 -1149.874)" fill="#f0f4fa"/>
    <path id="Path_1925" data-name="Path 1925" d="M3590.59,1462.985l-12.062-34.708-1.224-7.62-.016.01a7.311,7.311,0,0,0-14.611.462v2.476h4.9v-2.476a2.418,2.418,0,1,1,4.835,0v2.622l-1.466,4.225h0l-13.093,35.009h7.479l9.249-26.561,8.535,26.561Z" transform="translate(-3438.219 -1336.227)" fill="#f0f4fa"/>
    <path id="Path_1926" data-name="Path 1926" d="M3733.136,1499.149l18.1,52.085,1.837,11.435.024-.015a10.971,10.971,0,0,0,21.926-.694v-3.715h-7.347v3.715a3.629,3.629,0,1,1-7.255,0v-3.935l2.2-6.34h0l19.648-52.537h-11.223l-13.879,39.86-12.809-39.86Z" transform="translate(-3573.603 -1402.187)" fill="#f0f4fa"/>
    <path id="Path_1927" data-name="Path 1927" d="M3865.946,1287.3l-12.062-34.708-1.224-7.62-.016.01a7.311,7.311,0,0,0-14.61.462v2.476h4.9v-2.476a2.418,2.418,0,1,1,4.835,0v2.622l-1.466,4.224h0l-13.093,35.009h7.479l9.248-26.561,8.535,26.561Z" transform="translate(-3650.892 -1200.536)" fill="#f0f4fa"/>
    <path id="Path_1928" data-name="Path 1928" d="M3985.536,1291.409l18.1,52.085,1.837,11.435.024-.015a10.971,10.971,0,0,0,21.926-.694v-3.715h-7.347v3.715a3.629,3.629,0,1,1-7.255,0v-3.935l2.2-6.34h0l19.648-52.537h-11.223l-13.879,39.86-12.809-39.86Z" transform="translate(-3768.546 -1241.737)" fill="#f0f4fa"/>
    <path id="Path_1929" data-name="Path 1929" d="M3065.068,1862.047l-12.062-34.708-1.225-7.62-.016.01a7.311,7.311,0,0,0-14.611.462v2.476h4.9v-2.476a2.418,2.418,0,1,1,4.834,0v2.622l-1.466,4.225h0l-13.093,35.009h7.479l9.249-26.562,8.536,26.562Z" transform="translate(-2730.327 -1780.435)" fill="#f0f4fa"/>
    <path id="Path_1930" data-name="Path 1930" d="M3176.154,1866.81l18.1,52.085,1.837,11.435.024-.015a10.971,10.971,0,0,0,21.926-.694v-3.715h-7.347v3.715a3.629,3.629,0,1,1-7.255,0v-3.935l2.2-6.34h0l19.648-52.537h-11.223l-13.879,39.86-12.809-39.86Z" transform="translate(-2860.413 -1878.551)" fill="#f0f4fa"/>
    <path id="Path_1931" data-name="Path 1931" d="M3341.659,1686.362l-12.062-34.708-1.224-7.62-.016.01a7.311,7.311,0,0,0-14.611.462v2.476h4.9v-2.476a2.418,2.418,0,1,1,4.834,0v2.622l-1.466,4.225h0l-13.093,35.009h7.479l9.249-26.561,8.536,26.561Z" transform="translate(-3243.954 -1510.368)" fill="#f0f4fa"/>
    <path id="Path_1933" data-name="Path 1933" d="M3185.562,1705.273l8.261,23.772.839,5.219.01-.007a5.007,5.007,0,0,0,10.007-.317v-1.7h-3.353v1.7a1.656,1.656,0,1,1-3.311,0v-1.8l1-2.894h0l8.968-23.979h-5.122l-6.334,18.193-5.846-18.193Z" transform="translate(-2837.403 -1608.311)" fill="#f0f4fa"/>
    <path id="Path_1934" data-name="Path 1934" d="M3431.347,2026.905l-12.062-34.708-1.224-7.62-.016.01a7.311,7.311,0,0,0-14.611.462v2.476h4.9v-2.476a2.418,2.418,0,1,1,4.835,0v2.622l-1.467,4.225h0l-13.093,35.009h7.479l9.249-26.561,8.536,26.561Z" transform="translate(3698.696 2059.28) rotate(180)" fill="#f0f4fa"/>
    <path id="Path_1935" data-name="Path 1935" d="M3573.893,2063.07l18.1,52.085,1.837,11.435.024-.015a10.971,10.971,0,0,0,21.926-.694v-3.715h-7.347v3.715a3.629,3.629,0,1,1-7.255,0v-3.935l2.2-6.34h0l19.648-52.537H3611.8l-13.879,39.86-12.809-39.86Z" transform="translate(-3299.447 -1973.256)" fill="#f0f4fa"/>
    <path id="Path_1936" data-name="Path 1936" d="M3729.415,1885.376l-20.429-58.784-2.073-12.906-.027.017a12.382,12.382,0,0,0-24.747.782v4.193h8.292v-4.193a4.1,4.1,0,1,1,8.188,0v4.441l-2.483,7.155h0l-22.176,59.295h12.667l15.664-44.987,14.457,44.987Z" transform="translate(-3548.675 -1665.636)" fill="#f0f4fa"/>
    <path id="Path_1937" data-name="Path 1937" d="M3826.293,1855.329l18.1,52.085,1.837,11.435.024-.015a10.971,10.971,0,0,0,21.926-.694v-3.715h-7.347v3.715a3.629,3.629,0,1,1-7.255,0v-3.935l2.2-6.34h0l19.648-52.537H3864.2l-13.879,39.86-12.809-39.86Z" transform="translate(-3645.553 -1677.285)" fill="#f0f4fa"/>
    <path id="Path_1938" data-name="Path 1938" d="M3341.659,1686.362l-12.062-34.708-1.224-7.62-.016.01a7.311,7.311,0,0,0-14.611.462v2.476h4.9v-2.476a2.418,2.418,0,1,1,4.834,0v2.622l-1.466,4.225h0l-13.093,35.009h7.479l9.249-26.561,8.536,26.561Z" transform="translate(-3050.964 -1517.86)" fill="#f0f4fa"/>
    <path id="Path_1939" data-name="Path 1939" d="M3185.562,1705.273l8.261,23.772.839,5.219.01-.007a5.007,5.007,0,0,0,10.007-.317v-1.7h-3.353v1.7a1.656,1.656,0,1,1-3.311,0v-1.8l1-2.894h0l8.968-23.979h-5.122l-6.334,18.193-5.846-18.193Z" transform="translate(-2955.689 -1570.494)" fill="#f0f4fa"/>
    <path id="Path_1940" data-name="Path 1940" d="M22.425,33.723,14.164,9.951l-.839-5.219-.01.007a5.007,5.007,0,0,0-10.007.317v1.7H6.661v-1.7a1.656,1.656,0,1,1,3.311,0v1.8l-1,2.894h0L0,33.723H5.122l6.334-18.193L17.3,33.723Z" transform="translate(207.448 123.56)" fill="#f0f4fa"/>
  </g>
</svg>
