<svg xmlns="http://www.w3.org/2000/svg" width="14.844" height="14.754" viewBox="0 0 14.844 14.754">
  <path id="Path_1963" data-name="Path 1963" d="M-468.578,474.13A7.422,7.422,0,0,0-476,481.552a7.424,7.424,0,0,0,6.262,7.332V483.7h-1.885v-2.146h1.885v-1.635a2.619,2.619,0,0,1,2.8-2.888,11.4,11.4,0,0,1,1.661.145V479h-.936a1.073,1.073,0,0,0-1.21,1.159v1.392h2.059l-.329,2.146h-1.729v5.186a7.424,7.424,0,0,0,6.262-7.332A7.422,7.422,0,0,0-468.578,474.13Z" transform="translate(476 -474.13)" fill="#333132"/>
</svg>
