<svg xmlns="http://www.w3.org/2000/svg" width="17.366" height="17.26" viewBox="0 0 17.366 17.26">
  <path id="Path_121" data-name="Path 121" d="M-467.317,474.13A8.683,8.683,0,0,0-476,482.813a8.685,8.685,0,0,0,7.326,8.577v-6.067h-2.2v-2.51h2.2V480.9a3.064,3.064,0,0,1,3.279-3.378,13.336,13.336,0,0,1,1.944.17v2.137h-1.095a1.255,1.255,0,0,0-1.415,1.356v1.629h2.408l-.385,2.51h-2.023v6.067a8.685,8.685,0,0,0,7.326-8.577A8.683,8.683,0,0,0-467.317,474.13Z" transform="translate(476 -474.13)" fill="#333132"/>
</svg>
