<svg xmlns="http://www.w3.org/2000/svg" width="19.863" height="19.742" viewBox="0 0 19.863 19.742">
  <path id="Path_1993" data-name="Path 1993" d="M-466.068,474.13A9.932,9.932,0,0,0-476,484.061a9.934,9.934,0,0,0,8.38,9.811v-6.94h-2.522v-2.871h2.522v-2.188a3.5,3.5,0,0,1,3.751-3.864,15.253,15.253,0,0,1,2.223.194v2.444H-462.9a1.436,1.436,0,0,0-1.619,1.551v1.863h2.754l-.44,2.871h-2.314v6.94a9.934,9.934,0,0,0,8.38-9.811A9.932,9.932,0,0,0-466.068,474.13Z" transform="translate(476 -474.13)" fill="#1877f2"/>
</svg>
