<svg xmlns="http://www.w3.org/2000/svg" width="19.351" height="19.742" viewBox="0 0 19.351 19.742">
  <g id="Component_5" data-name="Component 5" transform="translate(0 0)">
    <path id="Path_123" data-name="Path 123" d="M835.192,287.9a11.6,11.6,0,0,0-.17-2.006h-9.31v3.8h5.332a4.568,4.568,0,0,1-1.973,3v2.466h3.181a9.64,9.64,0,0,0,2.941-7.261Z" transform="translate(-815.84 -277.805)" fill="#4285f4"/>
    <path id="Path_124" data-name="Path 124" d="M809.462,304.308A9.45,9.45,0,0,0,816,301.925l-3.181-2.466a5.987,5.987,0,0,1-8.9-3.13h-3.283v2.542A9.872,9.872,0,0,0,809.462,304.308Z" transform="translate(-799.591 -284.566)" fill="#34a853"/>
    <path id="Path_125" data-name="Path 125" d="M801.985,284.684a5.913,5.913,0,0,1,0-3.779v-2.542h-3.279a9.879,9.879,0,0,0,0,8.864Z" transform="translate(-797.657 -272.921)" fill="#fbbc04"/>
    <path id="Path_126" data-name="Path 126" d="M809.462,266.8a5.366,5.366,0,0,1,3.786,1.48l2.818-2.818a9.487,9.487,0,0,0-6.6-2.568,9.869,9.869,0,0,0-8.821,5.441l3.279,2.542A5.9,5.9,0,0,1,809.462,266.8Z" transform="translate(-799.591 -262.897)" fill="#ea4335"/>
  </g>
</svg>
