<svg xmlns="http://www.w3.org/2000/svg" width="16.068" height="16.068" viewBox="0 0 16.068 16.068">
  <path id="Path_1901" data-name="Path 1901" d="M-138.313-209.07a5.9,5.9,0,0,0-.373-1.95,3.945,3.945,0,0,0-.926-1.423,3.937,3.937,0,0,0-1.423-.926,5.891,5.891,0,0,0-1.95-.374c-.857-.039-1.13-.048-3.312-.048s-2.456.01-3.313.048a5.89,5.89,0,0,0-1.95.374,3.937,3.937,0,0,0-1.423.926,3.956,3.956,0,0,0-.927,1.423,5.912,5.912,0,0,0-.373,1.95c-.039.857-.048,1.131-.048,3.313s.009,2.456.048,3.312a5.912,5.912,0,0,0,.373,1.95,3.946,3.946,0,0,0,.927,1.423,3.926,3.926,0,0,0,1.423.926,5.878,5.878,0,0,0,1.95.374c.857.039,1.131.048,3.313.048s2.455-.009,3.312-.048a5.879,5.879,0,0,0,1.95-.374,3.926,3.926,0,0,0,1.423-.926,3.935,3.935,0,0,0,.926-1.423,5.9,5.9,0,0,0,.373-1.95c.039-.857.048-1.131.048-3.312S-138.274-208.212-138.313-209.07Zm-8.064,7.514a4.23,4.23,0,0,1-4.23-4.23,4.23,4.23,0,0,1,4.23-4.23,4.23,4.23,0,0,1,4.23,4.23A4.23,4.23,0,0,1-146.378-201.556Zm4.5-8a1.14,1.14,0,0,1-1.14-1.14,1.14,1.14,0,0,1,1.14-1.139,1.14,1.14,0,0,1,1.139,1.139A1.14,1.14,0,0,1-141.875-209.551Z" transform="translate(154.333 213.791)" fill="#333132"/>
</svg>
