<svg xmlns="http://www.w3.org/2000/svg" width="19.977" height="25.127" viewBox="0 0 19.977 25.127">
  <path id="Path_1999" data-name="Path 1999" d="M1747.034-1664.443a8.989,8.989,0,0,0-8.989,8.988c0,4.964,8.989,13.741,8.989,13.741s8.989-8.776,8.989-13.741A8.988,8.988,0,0,0,1747.034-1664.443Zm0,13.092a4.32,4.32,0,0,1-4.32-4.32,4.32,4.32,0,0,1,4.32-4.32,4.32,4.32,0,0,1,4.32,4.32A4.32,4.32,0,0,1,1747.034-1651.35Z" transform="translate(-1737.045 1665.443)" fill="none" stroke="#5d9add" stroke-miterlimit="10" stroke-width="2"/>
</svg>
