<svg id="pinterest-seeklogo.com" xmlns="http://www.w3.org/2000/svg" width="17.485" height="17.486" viewBox="0 0 17.485 17.486">
  <path id="Path_1905" data-name="Path 1905" d="M0,8.743A8.743,8.743,0,0,0,5.233,16.75a7.681,7.681,0,0,1,.152-2.008c.168-.71,1.125-4.764,1.125-4.764A3.359,3.359,0,0,1,6.231,8.6c0-1.3.751-2.263,1.686-2.263A1.171,1.171,0,0,1,9.1,7.645a18.823,18.823,0,0,1-.772,3.1A1.353,1.353,0,0,0,9.7,12.431c1.656,0,2.772-2.128,2.772-4.648,0-1.916-1.291-3.35-3.638-3.35a4.14,4.14,0,0,0-4.3,4.187,2.524,2.524,0,0,0,.576,1.715.424.424,0,0,1,.126.487c-.042.161-.138.548-.178.7a.3.3,0,0,1-.438.219A3.367,3.367,0,0,1,2.83,8.4c0-2.484,2.095-5.461,6.248-5.461a5.225,5.225,0,0,1,5.535,5.008c0,3.43-1.907,5.992-4.717,5.992a2.507,2.507,0,0,1-2.136-1.09s-.508,2.014-.615,2.4a7.321,7.321,0,0,1-.88,1.873A8.743,8.743,0,1,0,0,8.743Z" fill="#333132"/>
</svg>
