<svg xmlns="http://www.w3.org/2000/svg" xmlns:xlink="http://www.w3.org/1999/xlink" width="57" height="57" viewBox="0 0 57 57">
  <defs>
    <filter id="Эллипс_2" x="0" y="0" width="57" height="57" filterUnits="userSpaceOnUse">
      <feOffset input="SourceAlpha"/>
      <feGaussianBlur stdDeviation="3" result="blur"/>
      <feFlood flood-opacity="0.11"/>
      <feComposite operator="in" in2="blur"/>
      <feComposite in="SourceGraphic"/>
    </filter>
  </defs>
  <g id="Сгруппировать_950" data-name="Сгруппировать 950" transform="translate(-473 -692)">
    <g transform="matrix(1, 0, 0, 1, 473, 692)" filter="url(#Эллипс_2)">
      <circle id="Эллипс_2-2" data-name="Эллипс 2" cx="19.5" cy="19.5" r="19.5" transform="translate(9 9)" fill="#fff"/>
    </g>
    <g id="Сгруппировать_949" data-name="Сгруппировать 949">
      <path id="Контур_1904" data-name="Контур 1904" d="M-193.091-1728.9a5.938,5.938,0,0,1,4.226,1.751l.793.793.793-.793a5.938,5.938,0,0,1,4.226-1.751,5.938,5.938,0,0,1,4.226,1.751,5.937,5.937,0,0,1,1.751,4.226,5.937,5.937,0,0,1-1.751,4.226l-9.245,9.245-9.245-9.245a5.937,5.937,0,0,1-1.751-4.226,5.937,5.937,0,0,1,1.751-4.226A5.938,5.938,0,0,1-193.091-1728.9Zm5.019,5.372-2.207-2.207a3.951,3.951,0,0,0-2.812-1.165,3.951,3.951,0,0,0-2.812,1.165,3.95,3.95,0,0,0-1.165,2.812,3.95,3.95,0,0,0,1.165,2.812l7.831,7.831,7.831-7.831a3.951,3.951,0,0,0,1.165-2.812,3.95,3.95,0,0,0-1.165-2.812,3.951,3.951,0,0,0-2.812-1.165,3.951,3.951,0,0,0-2.812,1.165Z" transform="translate(689.568 2441.397)" fill="#5a5a5a"/>
    </g>
  </g>
</svg>
